<svg version="1.0" xmlns="http://www.w3.org/2000/svg"
 width="1080.000000pt" height="1080.000000pt" viewBox="0 0 1080.000000 1080.000000"
 preserveAspectRatio="xMidYMid meet">
<metadata>
Created by potrace 1.16, written by Peter Selinger 2001-2019
</metadata>
<g transform="translate(0.000000,1080.000000) scale(0.100000,-0.100000)"
fill="#000000" stroke="none">
<path d="M6355 9979 c-2 -8 -49 -212 -104 -454 -55 -242 -114 -500 -130 -574
-17 -73 -31 -141 -31 -150 0 -14 17 -21 73 -33 39 -9 73 -15 74 -14 4 3 273
1186 273 1197 0 4 -24 12 -52 19 -29 6 -63 13 -75 16 -14 4 -25 1 -28 -7z"/>
<path d="M4891 9724 c-36 -8 -66 -16 -69 -18 -2 -3 -38 -169 -80 -369 -43
-201 -80 -367 -84 -369 -4 -1 -99 130 -213 292 -113 162 -212 301 -219 308
-11 11 -25 11 -77 1 -35 -6 -70 -15 -77 -18 -8 -5 75 -129 263 -394 223 -314
280 -387 298 -387 12 1 49 6 82 13 56 12 60 15 67 47 18 81 188 897 188 903 0
8 1 8 -79 -9z"/>
<path d="M5406 9720 c-71 -23 -155 -79 -196 -130 -17 -21 -45 -69 -63 -107
-31 -65 -32 -73 -32 -193 0 -125 0 -126 38 -202 62 -127 174 -209 325 -238 84
-17 212 -8 285 20 63 24 141 78 144 100 2 8 -14 35 -35 59 l-38 44 -44 -32
c-122 -88 -312 -80 -432 19 -42 34 -88 120 -88 163 l0 29 93 -6 c50 -3 173 -8
272 -11 99 -3 217 -8 261 -11 l82 -6 7 39 c8 49 -9 156 -36 229 -41 108 -168
215 -290 243 -70 16 -187 12 -253 -9z m260 -135 c78 -32 164 -147 164 -218 0
-29 -1 -29 -47 -23 -27 3 -153 8 -280 12 -262 7 -249 2 -212 84 36 80 111 143
191 160 51 10 141 3 184 -15z"/>
<path d="M6815 9407 c-116 -39 -209 -119 -262 -228 -43 -86 -57 -156 -50 -251
14 -201 178 -370 399 -409 225 -40 441 106 503 342 60 222 -61 440 -293 530
-71 28 -235 36 -297 16z m267 -155 c66 -29 132 -93 158 -154 64 -149 -30 -364
-183 -423 -69 -26 -176 -17 -246 20 -63 34 -95 71 -129 144 -52 113 -10 278
94 370 26 23 68 48 93 56 60 19 154 13 213 -13z"/>
<path d="M3595 9347 c-205 -68 -325 -224 -325 -423 0 -284 244 -501 513 -456
145 24 312 132 369 239 46 86 46 88 -18 117 -31 14 -59 26 -63 26 -3 0 -14
-20 -24 -44 -23 -57 -101 -130 -175 -164 -49 -23 -70 -27 -147 -27 -67 0 -98
5 -123 18 -42 23 -112 86 -112 101 1 6 141 78 313 160 172 83 315 153 320 156
14 12 -47 113 -106 176 -40 43 -80 74 -125 96 -58 29 -76 33 -161 35 -60 2
-111 -2 -136 -10z m220 -147 c45 -19 100 -63 116 -92 9 -17 -10 -29 -236 -138
-135 -66 -250 -120 -255 -120 -14 0 -22 36 -21 102 1 195 212 328 396 248z"/>
<path d="M7444 8558 c-208 -254 -379 -466 -379 -470 0 -8 106 -98 115 -98 3 0
68 77 145 170 l139 170 13 -61 c18 -89 49 -147 114 -210 139 -137 332 -173
498 -93 85 41 183 145 229 240 35 75 37 84 37 180 0 96 -2 103 -38 178 -48 96
-124 173 -215 218 -57 28 -79 34 -154 36 l-88 4 41 49 c23 28 40 51 38 52 -2
2 -29 24 -60 50 l-55 46 -380 -461z m580 109 c68 -31 122 -86 154 -155 34 -74
29 -174 -13 -251 -105 -191 -325 -239 -476 -103 -68 61 -99 127 -99 209 0 77
26 148 75 209 96 117 229 150 359 91z"/>
<path d="M2622 8959 c-115 -14 -232 -67 -329 -147 -86 -72 -398 -365 -398
-374 0 -10 777 -848 786 -848 14 0 413 380 450 430 156 208 175 445 52 648
-94 154 -254 267 -406 287 -83 11 -93 12 -155 4z m185 -179 c170 -59 294 -232
294 -410 0 -89 -24 -166 -76 -244 -38 -58 -308 -320 -323 -314 -5 1 -141 145
-302 318 l-292 315 108 103 c185 175 255 222 368 248 71 15 148 10 223 -16z"/>
<path d="M8500 8089 c-74 -14 -183 -74 -243 -133 -194 -192 -169 -492 59 -695
53 -47 127 -86 186 -96 l37 -7 15 53 c22 74 21 77 -26 89 -160 42 -285 244
-248 399 13 54 65 141 83 141 7 0 103 -131 215 -290 l203 -290 43 30 c143 98
225 275 197 426 -16 87 -63 177 -126 243 -108 114 -246 159 -395 130z m226
-167 c134 -69 198 -249 132 -377 -14 -27 -37 -60 -50 -72 l-23 -21 -155 221
c-85 122 -155 228 -155 236 0 43 176 52 251 13z"/>
<path d="M1591 7496 c-17 -37 -34 -78 -37 -91 -4 -14 31 -130 96 -319 56 -163
100 -299 98 -301 -2 -3 -132 51 -289 119 -156 68 -317 137 -357 154 l-73 31
-25 -57 c-14 -31 -26 -65 -27 -75 -2 -14 105 -64 553 -258 305 -132 559 -241
563 -242 9 -2 69 132 63 142 -3 4 -52 26 -109 50 l-105 44 -41 116 c-26 74
-36 118 -30 122 6 3 97 30 202 58 106 29 215 59 243 67 l52 15 37 84 c21 47
36 87 34 89 -2 2 -139 -32 -304 -75 -165 -44 -306 -80 -313 -82 -9 -1 -43 74
-103 228 -49 127 -90 235 -93 240 -2 6 -18 -21 -35 -59z"/>
<path d="M8925 7114 c-198 -84 -377 -160 -397 -168 l-37 -16 28 -67 c16 -37
34 -69 39 -71 6 -2 102 36 214 83 251 107 308 123 384 106 74 -17 130 -62 168
-136 17 -33 31 -61 32 -63 0 -1 25 8 55 21 30 13 62 27 72 30 17 6 17 8 1 39
-50 99 -124 168 -206 193 l-43 13 48 21 c27 12 53 21 57 21 22 0 20 26 -6 86
-15 35 -32 64 -38 63 -6 -1 -173 -70 -371 -155z"/>
<path d="M1336 6479 c-187 -99 -263 -399 -155 -611 36 -71 122 -152 197 -186
237 -109 489 -25 602 200 39 79 53 155 48 258 -5 98 -33 170 -92 235 l-36 40
-50 -55 -49 -55 23 -25 c85 -91 86 -262 3 -372 -108 -141 -337 -150 -473 -19
-57 56 -79 111 -79 207 0 70 4 88 30 139 19 38 46 71 75 93 25 19 46 40 48 46
2 11 -44 127 -50 126 -2 -1 -20 -10 -42 -21z"/>
<path d="M8854 6066 c-43 -19 -64 -53 -64 -102 0 -77 71 -128 145 -104 48 16
75 53 75 104 0 50 -21 83 -66 102 -41 17 -50 17 -90 0z"/>
<path d="M1660 5463 c-151 -13 -298 -28 -326 -33 -111 -23 -206 -109 -236
-213 -16 -59 -14 -210 6 -290 23 -98 98 -237 127 -237 8 0 73 40 107 66 2 1
-12 22 -31 47 -63 82 -97 225 -77 321 19 91 72 140 171 155 42 7 49 6 49 -9 0
-9 7 -87 15 -173 20 -211 43 -278 117 -341 124 -106 311 -58 378 97 60 138 24
349 -74 435 -20 17 -36 34 -36 37 0 3 23 5 50 5 l50 0 -1 63 c-1 102 25 96
-289 70z m85 -187 c72 -43 115 -129 117 -233 2 -113 -36 -171 -116 -180 -79
-9 -119 18 -145 99 -13 38 -40 325 -32 333 2 3 34 5 69 5 51 0 74 -5 107 -24z"/>
<path d="M8880 5273 c-6 -32 -13 -67 -15 -78 -4 -19 20 -26 405 -105 226 -46
405 -87 398 -91 -7 -3 -177 -64 -378 -134 -201 -70 -368 -130 -372 -134 -3 -3
-9 -22 -13 -41 l-6 -35 280 -253 c153 -140 289 -264 301 -277 l22 -23 -63 14
c-143 31 -762 155 -763 152 -8 -10 -32 -149 -27 -152 6 -4 1088 -225 1121
-229 13 -2 36 65 39 115 1 9 -143 145 -348 330 -192 172 -346 316 -342 319 3
4 205 75 448 159 l441 153 12 64 c7 35 11 66 9 68 -3 3 -1123 235 -1135 235
-1 0 -8 -26 -14 -57z"/>
<path d="M1921 4660 l-43 -40 30 -35 c62 -70 67 -162 11 -209 -18 -15 -77 -40
-142 -60 -243 -75 -381 -115 -385 -112 -2 2 -18 54 -37 116 -19 62 -35 114
-37 116 -3 2 -30 -4 -61 -13 -37 -10 -57 -21 -57 -31 0 -8 14 -62 31 -119 17
-58 27 -108 23 -112 -5 -5 -46 -19 -92 -32 -55 -15 -81 -27 -78 -35 3 -7 10
-32 16 -55 6 -23 15 -52 20 -64 l9 -23 90 28 c50 15 93 25 94 21 2 -3 12 -34
22 -68 10 -35 22 -63 28 -63 30 0 118 33 114 43 -12 32 -38 130 -35 132 2 2
111 36 243 75 132 40 261 83 286 96 52 26 95 71 117 124 20 47 11 170 -16 232
-19 43 -86 129 -101 128 -3 -1 -26 -19 -50 -40z"/>
<path d="M1965 4007 c-66 -22 -99 -43 -142 -90 -88 -95 -88 -190 -3 -517 35
-133 37 -179 11 -236 -14 -31 -30 -47 -65 -64 -110 -53 -226 22 -306 195 -30
64 -60 190 -60 250 0 39 -5 41 -94 29 l-46 -7 0 -56 c1 -203 150 -469 308
-550 124 -63 261 -42 364 57 88 84 95 205 28 457 -64 239 -57 320 30 366 103
56 219 -14 303 -183 49 -98 67 -174 67 -285 l0 -93 65 0 c62 0 66 1 76 28 7
16 9 59 5 107 -16 235 -159 486 -321 566 -73 36 -159 46 -220 26z"/>
<path d="M8326 3609 c-119 -199 -215 -363 -214 -364 32 -21 110 -65 117 -65 4
0 80 120 169 268 89 147 167 276 175 286 13 18 22 14 170 -75 87 -52 157 -97
157 -101 0 -4 -65 -115 -145 -248 -80 -133 -145 -244 -145 -248 0 -5 77 -54
111 -70 3 -1 72 108 154 243 81 135 152 245 157 245 13 0 298 -171 298 -179 0
-4 -74 -129 -165 -280 -91 -150 -163 -276 -160 -281 7 -11 115 -73 119 -69 17
22 418 700 415 703 -6 6 -990 596 -993 596 -2 0 -101 -163 -220 -361z"/>
<path d="M7967 3106 l-57 -53 115 -126 c63 -69 115 -130 115 -136 0 -15 -253
-241 -270 -241 -8 0 -104 20 -213 45 l-199 45 -64 -57 c-35 -31 -64 -59 -64
-62 0 -3 102 -28 228 -55 125 -27 228 -50 230 -51 1 -1 -8 -24 -20 -51 -17
-38 -22 -68 -23 -134 0 -75 4 -93 32 -153 40 -84 117 -163 198 -203 54 -26 70
-29 161 -29 98 0 103 1 185 42 81 40 199 138 451 374 l47 44 -388 425 c-214
233 -392 425 -397 427 -5 1 -35 -22 -67 -51z m452 -613 c94 -103 171 -191 171
-195 0 -4 -57 -59 -127 -123 -152 -138 -223 -178 -311 -178 -70 0 -124 25
-176 83 -79 87 -95 174 -51 269 14 29 37 67 51 85 32 37 256 245 266 246 3 0
83 -84 177 -187z"/>
<path d="M2660 2669 c-162 -171 -352 -370 -422 -443 l-127 -133 57 -56 57 -56
427 447 428 447 -52 52 c-29 29 -57 53 -63 52 -5 0 -143 -140 -305 -310z"/>
<path d="M2899 2238 c-200 -265 -367 -487 -371 -494 -5 -8 13 -28 54 -58 49
-37 64 -44 74 -34 6 7 175 229 373 492 l362 480 -23 18 c-13 10 -41 31 -64 47
l-41 30 -364 -481z"/>
<path d="M3526 2463 c-17 -34 -238 -495 -312 -651 l-53 -112 70 -36 c39 -19
72 -34 73 -32 1 2 48 99 104 216 56 118 116 234 133 259 38 55 107 100 167
109 93 14 209 -35 268 -112 27 -34 29 -44 29 -118 l-1 -81 -117 -243 c-64
-134 -117 -246 -117 -250 0 -13 132 -74 140 -65 22 25 244 506 257 557 30 118
-1 232 -87 316 -116 113 -298 159 -425 106 l-35 -15 30 59 29 58 -65 31 c-37
17 -68 31 -70 31 -2 0 -10 -12 -18 -27z"/>
<path d="M7169 2439 l-66 -30 174 -391 c95 -215 172 -393 170 -394 -2 -2 -221
109 -488 246 -266 137 -489 250 -495 250 -6 0 -37 -11 -68 -25 -51 -22 -55
-27 -47 -47 24 -62 454 -1024 461 -1032 9 -9 136 40 146 55 3 5 -72 182 -166
395 -95 212 -170 387 -168 389 2 2 221 -109 488 -246 267 -137 490 -249 496
-249 6 0 37 11 67 25 l56 26 -48 107 c-26 59 -132 297 -236 530 -103 232 -192
422 -199 421 -6 0 -41 -14 -77 -30z"/>
<path d="M5644 1966 c-34 -34 -36 -40 -32 -86 6 -59 27 -86 78 -101 78 -23
148 40 137 124 -8 55 -43 88 -101 94 -42 5 -48 3 -82 -31z"/>
<path d="M4946 1768 c-21 -123 -41 -226 -45 -229 -3 -3 -127 16 -276 42 -148
27 -277 48 -284 46 -20 -3 -44 -127 -26 -133 6 -3 134 -26 284 -53 149 -27
274 -50 276 -52 3 -4 -63 -391 -68 -396 -2 -1 -145 23 -320 54 -174 31 -319
54 -322 51 -7 -7 -28 -128 -23 -133 5 -6 800 -146 804 -142 1 1 46 248 98 547
53 300 99 557 102 571 5 26 3 27 -59 38 -112 19 -98 40 -141 -211z"/>
</g>
</svg>
